<svg width="110" height="13" viewBox="0 0 110 13" fill="none" xmlns="http://www.w3.org/2000/svg">
<path d="M2.49546 1.33071L2.09619 11.0551V11.2598C2.09619 12.0787 2.29583 12.2835 3.59347 12.3858V12.7953C2.6951 12.6929 2.29583 12.6929 1.79673 12.6929C1.29764 12.6929 0.898367 12.6929 0 12.7953V12.3858C1.29764 12.2835 1.49728 12.1811 1.49728 11.1575L1.89655 1.94488V1.84252C1.89655 1.02362 1.5971 0.818898 0.399274 0.716535V0.204724C1.098 0.307087 1.39746 0.307087 1.89655 0.307087C2.59528 0.307087 2.89474 0.307087 3.59347 0.204724L6.9873 9.72441L10.4809 0.204724C11.2795 0.307087 11.6788 0.307087 12.2777 0.307087C12.7768 0.307087 13.0762 0.307087 13.775 0.204724V0.716535C12.5771 0.818898 12.2777 1.02362 12.2777 1.84252V1.94488L12.4773 11.1575C12.4773 12.1811 12.677 12.2835 13.9746 12.3858V12.7953C12.7768 12.6929 12.3775 12.6929 11.6788 12.6929C10.98 12.6929 10.5808 12.6929 9.38294 12.7953V12.3858C10.5808 12.2835 10.8802 12.0787 10.8802 11.2598V11.1575L10.6806 1.43307L7.58621 9.72441L7.38657 10.3386L7.08711 11.0551L6.88748 11.7717L6.68784 12.3858H6.38839L6.18875 11.7717L5.88929 11.0551L5.68966 10.3386L5.49002 9.62205L2.49546 1.33071ZM18.6661 12.3858C16.9691 12.3858 16.2704 11.0551 16.2704 8.08661H21.7604C21.7604 5.22047 20.5626 3.68504 18.3666 3.68504C16.1706 3.68504 14.7731 5.52756 14.7731 8.3937C14.7731 11.2598 16.1706 13 18.4664 13C20.2632 13 21.461 11.874 21.6606 9.92913H20.9619C20.7623 11.4646 19.9637 12.3858 18.6661 12.3858ZM16.2704 7.37008C16.4701 5.22047 17.1688 4.09449 18.3666 4.09449C19.5644 4.09449 20.1633 5.11811 20.2632 7.37008H16.2704ZM22.7586 4.29921V3.99213C23.7568 3.88976 24.4555 3.7874 25.1543 3.58268C25.2541 4.29921 25.2541 4.6063 25.3539 5.11811V5.32283C25.7532 4.29921 26.5517 3.58268 27.4501 3.58268C28.3485 3.58268 29.0472 4.19685 29.0472 5.11811C29.0472 5.62992 28.7477 6.03937 28.2486 6.03937C27.8494 6.03937 27.4501 5.73228 27.4501 5.4252C27.4501 5.4252 27.4501 5.32283 27.4501 5.22047V5.01575V4.91339C27.4501 4.6063 27.2505 4.50394 26.8512 4.50394C25.853 4.50394 25.2541 5.73228 25.2541 7.5748V11.4646C25.2541 12.2835 25.4537 12.3858 26.5517 12.4882V12.8976C25.5535 12.7953 25.1543 12.7953 24.5554 12.7953C23.8566 12.7953 23.5572 12.7953 22.4592 12.8976V12.4882C23.5572 12.3858 23.7568 12.2835 23.7568 11.4646V5.52756V5.22047C23.7568 4.40157 23.657 4.29921 22.6588 4.29921H22.7586ZM36.1343 3.48031V6.55118H35.735C35.4356 4.91339 34.7368 4.09449 33.6388 4.09449C32.2414 4.09449 31.4428 5.62992 31.4428 8.29134C31.4428 10.9528 32.1416 12.2835 33.539 12.2835C34.637 12.2835 35.3358 11.4646 35.5354 9.82677H36.3339C36.1343 11.874 35.0363 12.8976 33.4392 12.8976C31.343 12.8976 29.8457 11.0551 29.8457 8.29134C29.8457 5.52756 31.343 3.58268 33.4392 3.58268C34.2378 3.58268 34.7368 3.7874 35.3358 4.40158L35.8349 3.48031H36.1343ZM41.5245 12.3858C39.8276 12.3858 39.1289 11.0551 39.1289 8.08661H44.6189C44.6189 5.22047 43.4211 3.68504 41.225 3.68504C39.029 3.68504 37.6316 5.52756 37.6316 8.3937C37.6316 11.2598 39.029 13 41.3249 13C43.1216 13 44.3194 11.874 44.5191 9.92913H43.8203C43.6207 11.4646 42.8221 12.3858 41.5245 12.3858ZM39.1289 7.37008C39.3285 5.22047 40.0272 4.09449 41.225 4.09449C42.4229 4.09449 43.0218 5.11811 43.1216 7.37008H39.1289ZM53.1035 10.8504V0C52.2051 0.204724 51.4065 0.409449 50.3085 0.511811V0.818898C51.5064 0.818898 51.6062 0.92126 51.6062 1.94488V5.22047C50.9074 4.09449 50.4084 3.7874 49.4102 3.7874C47.4138 3.7874 46.1162 5.73228 46.1162 8.3937C46.1162 11.0551 47.5136 13 49.51 13C50.5082 13 51.3067 12.4882 51.8058 11.4646C51.9056 12.1811 51.9056 12.2835 52.1053 13C52.9038 12.7953 53.2033 12.6929 54.2015 12.5906H54.5009V12.2835C53.2033 12.0787 53.1035 11.9764 53.1035 10.8504ZM49.6098 12.4882C48.3122 12.4882 47.6134 11.0551 47.6134 8.3937C47.6134 5.62992 48.2123 4.29921 49.6098 4.29921C51.0073 4.29921 51.706 5.73228 51.706 8.49606C51.6062 11.0551 50.9074 12.4882 49.6098 12.4882ZM58.9927 12.3858C57.2958 12.3858 56.5971 11.0551 56.5971 8.08661H62.0871C62.0871 5.22047 60.8893 3.68504 58.6933 3.68504C56.4973 3.68504 55.0998 5.52756 55.0998 8.3937C55.0998 11.2598 56.4973 13 58.7931 13C60.5898 13 61.7877 11.874 61.9873 9.92913H61.2886C61.0889 11.4646 60.2904 12.3858 58.9927 12.3858ZM56.5971 7.37008C56.7967 5.22047 57.4955 4.09449 58.6933 4.09449C59.8911 4.09449 60.49 5.11811 60.5898 7.37008H56.5971ZM63.5844 13V9.82677H63.9837C64.2831 11.5669 65.0817 12.3858 66.3793 12.3858C67.4773 12.3858 68.2759 11.6693 68.2759 10.6457C68.2759 10.0315 67.9764 9.62205 67.078 9.11024L66.3793 8.80315L65.4809 8.49606C64.1833 7.88189 63.6842 7.37008 63.6842 6.24409C63.6842 4.70866 64.7822 3.7874 66.4791 3.7874C67.1779 3.7874 67.677 3.99213 68.3757 4.40158L68.6751 3.58268H68.9746V6.44882H68.5753C68.3757 4.91339 67.7768 4.19685 66.6788 4.19685C65.6806 4.19685 64.9818 4.91339 64.9818 5.73228C64.9818 6.44882 65.2813 6.75591 66.8784 7.47244L67.677 7.77953C69.0744 8.3937 69.5735 9.00787 69.5735 10.1339C69.5735 11.6693 68.3757 12.7953 66.5789 12.7953C65.7804 12.7953 65.0817 12.5906 64.3829 11.9764L63.9837 12.7953H63.5844V13ZM83.3485 3.27559C83.3485 2.25197 82.9492 1.43307 82.2505 0.92126C81.6516 0.409449 80.9528 0.204724 79.755 0.204724H74.9637V0.716535C76.2613 0.818898 76.461 0.92126 76.461 1.94488V11.0551C76.461 12.0787 76.3612 12.1811 74.9637 12.2835V12.6929H79.5554C80.9528 12.6929 81.6515 12.4882 82.4501 12.0787C83.3485 11.4646 83.9474 10.3386 83.9474 9.11024C83.9474 8.08661 83.5481 7.16535 82.8494 6.65354C82.4501 6.34646 82.0508 6.14173 81.3521 6.03937C82.6497 5.52756 83.3485 4.6063 83.3485 3.27559ZM77.9583 0.818898H79.5554C81.0526 0.818898 81.7514 1.6378 81.7514 3.37795C81.7514 4.19685 81.5517 4.91339 81.1525 5.32283C80.7532 5.83465 80.2541 5.93701 79.2559 5.93701H77.9583V0.818898ZM79.755 6.44882C80.7532 6.44882 81.2523 6.65354 81.6516 7.06299C82.0508 7.47244 82.3503 8.29134 82.3503 9.2126C82.3503 11.0551 81.4519 12.1811 79.755 12.1811H79.0563C78.0581 12.1811 77.9583 12.0787 77.9583 11.1575V6.44882H79.755ZM89.3376 12.3858C87.6407 12.3858 86.9419 11.0551 86.9419 8.08661H92.4319C92.4319 5.22047 91.2341 3.68504 89.0381 3.68504C86.8421 3.68504 85.4446 5.52756 85.4446 8.3937C85.4446 11.2598 86.8421 13 89.1379 13C90.9347 13 92.1325 11.874 92.3321 9.92913H91.6334C91.4338 11.4646 90.6352 12.3858 89.3376 12.3858ZM86.9419 7.37008C87.1416 5.22047 87.8403 4.09449 89.0381 4.09449C90.2359 4.09449 90.8348 5.11811 90.9347 7.37008H86.9419ZM93.3303 4.40158V4.09449C94.4283 3.99213 95.0272 3.7874 95.726 3.48031C95.8258 3.88976 95.8258 4.40157 95.9256 5.11811C96.6243 4.09449 97.3231 3.68504 98.4211 3.68504C99.5191 3.68504 100.517 4.29921 100.817 5.22047C101.016 5.62992 101.116 6.24409 101.116 6.96063V11.4646C101.116 12.2835 101.316 12.3858 102.414 12.4882V12.8976C101.416 12.7953 101.116 12.7953 100.417 12.7953C99.7187 12.7953 99.4192 12.7953 98.4211 12.8976V12.4882C99.4192 12.4882 99.6189 12.2835 99.6189 11.4646V6.85827C99.6189 5.22047 99.1198 4.6063 97.922 4.6063C96.7241 4.6063 96.0254 5.4252 96.0254 6.96063V11.4646C96.0254 12.1811 96.2251 12.3858 97.2232 12.4882V12.8976C96.2251 12.7953 95.9256 12.7953 95.2269 12.7953C94.628 12.7953 94.2287 12.7953 93.2305 12.8976V12.4882C94.3285 12.3858 94.5281 12.2835 94.5281 11.4646V5.62992V5.32283C94.5281 4.50394 94.4283 4.40158 93.5299 4.40158C93.5299 4.40158 93.4301 4.40158 93.3303 4.40158ZM103.113 12.7953L108.103 4.40158H105.808C104.61 4.40158 104.31 4.70866 103.711 6.34646H103.312L103.711 3.88976H110L105.009 12.2835H107.105C108.303 12.2835 108.902 11.7717 109.401 10.0315H109.8L109.301 12.6929H103.113V12.7953Z" fill="white"/>
</svg>
