<svg width="56" height="56" viewBox="0 0 56 56" fill="none" xmlns="http://www.w3.org/2000/svg">
<path d="M55.3875 28C55.3875 43.1375 43.1375 55.3875 28 55.3875C12.8625 55.3875 0.612499 43.1375 0.612499 28C0.612499 12.8625 12.8625 0.612499 28 0.612499C43.1375 0.612499 55.3875 12.8625 55.3875 28ZM28 2.275C13.7375 2.275 2.275 13.7375 2.275 28C2.275 42.2625 13.825 53.725 28 53.725C42.2625 53.725 53.725 42.175 53.725 28C53.725 13.7375 42.2625 2.275 28 2.275Z" fill="url(#paint0_linear_11_125)"/>
<path d="M28 2.275C13.7375 2.275 2.27499 13.7375 2.27499 28C2.27499 42.2625 13.825 53.725 28 53.725C42.2625 53.725 53.725 42.175 53.725 28C53.725 13.7375 42.2625 2.275 28 2.275ZM28 52.0625C14.7 52.0625 3.93749 41.3 3.93749 28C3.93749 14.7 14.7 3.9375 28 3.9375C41.3 3.9375 52.0625 14.7 52.0625 28C52.0625 41.3 41.3 52.0625 28 52.0625Z" fill="url(#paint1_linear_11_125)"/>
<path opacity="0.4" d="M28 55.3875C43.1375 55.3875 55.3875 43.1375 55.3875 28C55.3875 12.8625 43.1375 0.6125 28 0.6125C12.8625 0.6125 0.6125 12.8625 0.6125 28C0.6125 43.1375 12.8625 55.3875 28 55.3875ZM28 0C43.4 0 56 12.6 56 28C56 43.4 43.4 56 28 56C12.6 56 0 43.4 0 28C0 12.6 12.6 0 28 0Z" fill="url(#paint2_linear_11_125)"/>
<path d="M1.925 28.0875C1.925 13.7375 13.5625 1.925 28 1.925C42.4375 1.925 54.075 13.65 54.075 28.0875C54.075 42.4375 42.4375 54.075 28 54.075C13.5625 54.075 1.925 42.4375 1.925 28.0875ZM10.0625 10.0625C5.425 14.7 2.5375 21.0875 2.5375 28.0875C2.5375 35.0875 5.425 41.475 9.975 46.025C14.6125 50.575 21 53.4625 28 53.4625C35 53.4625 41.3875 50.6625 45.9375 46.025C50.575 41.475 53.375 35.0875 53.375 28.0875C53.375 21.0875 50.4875 14.7 45.9375 10.0625C41.3875 5.425 35 2.5375 28 2.5375C21 2.5375 14.6125 5.425 10.0625 10.0625Z" fill="white"/>
<path opacity="0.4" d="M28 52.15C21.525 52.15 15.4875 49.6125 10.9375 45.0625C6.38751 40.5125 3.85001 34.475 3.85001 28C3.85001 21.525 6.38751 15.4875 10.9375 10.9375C15.4875 6.3875 21.525 3.85 28 3.85C34.475 3.85 40.5125 6.3875 45.0625 10.9375C49.6125 15.4875 52.15 21.525 52.15 28C52.15 34.475 49.6125 40.5125 45.0625 45.0625C40.5125 49.6125 34.475 52.15 28 52.15ZM28 51.45C34.2125 51.45 40.1625 49 44.5375 44.625C49 40.1625 51.3625 34.3 51.3625 28.0875C51.3625 21.875 48.9125 15.925 44.5375 11.55C40.075 7.0875 34.2125 4.725 28 4.725C21.7875 4.725 15.8375 7.175 11.4625 11.55C7.00001 15.8375 4.55001 21.7875 4.55001 28C4.55001 34.2125 7.00001 40.1625 11.375 44.5375C15.8375 49 21.7875 51.45 28 51.45Z" fill="url(#paint3_linear_11_125)"/>
<path d="M49.2625 39.375C48.825 39.025 31.9375 25.6375 31.9375 25.6375L28 3.15C27.7375 3.2375 27.3875 3.5 27.2125 3.85L24.4125 25.725L7 39.1125C7 39.1125 6.65 39.55 6.475 39.8125C6.3875 39.9875 6.3875 40.25 6.3875 40.5125L27.9125 31.675L49.4375 40.5125C49.6125 40.075 49.4375 39.6375 49.2625 39.375Z" fill="white"/>
<path d="M28.175 28.7L28 32.725L47.775 40.6875C48.475 41.0375 49 40.8625 49.525 40.5125L28.4375 28.6125C28.35 28.525 28.175 28.6125 28.175 28.7Z" fill="#565F64"/>
<path d="M28.175 28.7C28.175 28.7 29.3125 30.7125 30.625 32.1125C32.4625 34.125 34.9125 35.525 34.9125 35.525L47.775 40.6875C48.475 41.0375 49 40.8625 49.525 40.5125L28.4375 28.6125C28.35 28.525 28.175 28.6125 28.175 28.7Z" fill="url(#paint4_linear_11_125)"/>
<path d="M49.4375 39.725C49.4375 39.6375 49.35 39.55 49.2625 39.375L31.2375 26.1625L28.7875 27.7375C28.7875 27.7375 28.9625 27.825 29.05 27.7375C29.3125 27.65 29.8375 27.5625 30.3625 27.7375C30.8 27.9125 49.4375 39.8125 49.4375 39.8125C49.4375 39.8125 49.4375 39.8125 49.4375 39.725Z" fill="#A4AAAE" fill-opacity="0.6"/>
<path d="M48.825 38.9375L32.025 25.6375L31.2375 26.1625L49.2625 39.4625C49.175 39.2875 49 39.1125 48.825 38.9375Z" fill="#333E46"/>
<path d="M28.4375 27.3875C28.35 27.475 28.35 27.475 28.35 27.475C28.35 27.475 28.35 27.65 28.525 27.5625C28.6125 27.475 31.15 26.1625 32.025 25.6375L28.9625 4.6375C28.875 3.85 28.525 3.5 27.9125 3.2375L28.2625 27.5625L28.4375 27.3875Z" fill="#565F64"/>
<path d="M26.95 4.6375V5.775L25.025 25.1125C25.025 25.375 25.1125 25.6375 25.375 25.8125L26.5125 26.6875L27.3 5.3375L27.3875 3.675C27.125 3.85 27.0375 4.2 26.95 4.6375Z" fill="#A4AAAE" fill-opacity="0.6"/>
<path d="M25.9 27.0375L24.85 26.1625L7.08751 39.025C7.08751 39.025 6.56251 39.375 6.47501 39.725L7.08751 39.375L25.725 27.65C26.075 27.475 26.1625 27.3 25.9 27.0375Z" fill="#A4AAAE" fill-opacity="0.6"/>
<path d="M27.7375 28.7C27.7375 28.6125 27.65 28.525 27.5625 28.6125L6.3875 40.6C6.9125 40.95 7.4375 41.0375 8.1375 40.775L27.9125 32.8125L27.7375 28.7Z" fill="#565F64"/>
<path d="M28.35 27.475L28.4375 27.3875C28.35 27.475 28.35 27.475 28.35 27.475C28.35 27.475 28.35 27.5625 28.4375 27.5625H28.525C28.6125 27.475 31.15 26.1625 32.025 25.6375L31.675 23.1L28.9625 4.6375C28.9625 4.2875 28.875 4.025 28.7 3.85C28.7 3.85 30.0125 21.525 30.0125 23.45C30.0125 25.9875 28.35 27.475 28.35 27.475Z" fill="url(#paint5_linear_11_125)"/>
<path d="M27.7375 28.7C27.7375 28.6125 27.65 28.525 27.5625 28.6125L6.3875 40.6C6.9125 40.95 7.4375 41.0375 8.1375 40.775L27.9125 32.8125L27.7375 28.7Z" fill="url(#paint6_linear_11_125)" fill-opacity="0.8"/>
<path opacity="0.8" d="M8.1375 40.6875L27.9125 32.725L27.7375 28.875C27.3875 29.925 26.775 31.0625 25.1125 31.9375C23.8875 32.6375 12.1625 38.4125 7.9625 40.425C7.7 40.6 7.35 40.6875 7.175 40.775C7.525 40.95 7.7875 40.8625 8.1375 40.6875Z" fill="url(#paint7_linear_11_125)"/>
<path d="M28.4375 27.3875C28.35 27.475 28.35 27.475 28.35 27.475C28.35 27.475 28.35 27.65 28.525 27.5625C28.6125 27.475 31.15 26.1625 32.025 25.6375L28.9625 4.6375C28.875 3.85 28.525 3.5 27.9125 3.2375L28.2625 27.5625L28.4375 27.3875Z" fill="url(#paint8_linear_11_125)"/>
<path d="M28.4375 27.3875C28.35 27.475 28.35 27.475 28.35 27.475C28.35 27.475 28.35 27.65 28.525 27.5625C28.6125 27.475 31.15 26.1625 32.025 25.6375L28.9625 4.6375C28.875 3.85 28.525 3.5 27.9125 3.2375L28.2625 27.5625L28.4375 27.3875Z" fill="url(#paint9_linear_11_125)"/>
<path d="M4.4625 38.85C3.85 37.45 0.349999 30.625 4.2 17.5H2.7125C1.925 20.125 1.3125 21.7 0.962499 24.0625C0.962499 24.0625 0.787499 24.9375 0.699999 25.9C0.612499 26.8625 0.612499 27.3875 0.612499 28C0.612499 33.25 1.925 36.3125 1.925 36.3125C3.325 40.6875 5.775 44.625 9.1 47.6C11.9875 50.1375 16.45 52.0625 20.125 52.7625C19.5125 52.675 9.0125 48.2125 4.4625 38.85Z" fill="url(#paint10_linear_11_125)"/>
<path d="M28.35 28.525H27.5625C27.65 28.525 27.7375 28.525 27.7375 28.6125L27.9125 32.6375H28L28.175 28.6125C28.175 28.525 28.2625 28.4375 28.35 28.525Z" fill="url(#paint11_linear_11_125)"/>
<path d="M36.75 2.0125C45.9375 5.5125 54.6 15.1375 54.6 27.3C54.6 42 42.875 53.9875 28 53.9875V55.3875C42.875 55.3875 55.3875 43.1375 55.3875 28C55.3875 15.925 47.6875 5.775 36.75 2.0125Z" fill="url(#paint12_linear_11_125)"/>
<path d="M51.45 17.675C45.325 3.5875 31.5 2.8 30.7125 2.7125C30.7125 2.7125 30.7125 2.7125 30.625 2.7125C41.2125 4.6375 47.95 11.55 50.3125 18.8125V18.9C51.3625 21.7 51.8875 24.675 51.975 27.9125C52.0625 30.975 51.3625 34.3875 50.05 37.5375C49.9625 37.975 49.875 38.5 49.7875 38.5H51.1875C55.3875 30.625 53.55 22.6625 51.45 17.675Z" fill="url(#paint13_linear_11_125)"/>
<path d="M1.925 28.0875C1.925 13.7375 13.5625 1.925 28 1.925C42.4375 1.925 54.075 13.65 54.075 28.0875C54.075 42.4375 42.4375 54.075 28 54.075C13.5625 54.075 1.925 42.4375 1.925 28.0875ZM10.0625 10.0625C5.425 14.7 2.5375 21.0875 2.5375 28.0875C2.5375 35.0875 5.425 41.475 9.975 46.025C14.6125 50.575 21 53.4625 28 53.4625C35 53.4625 41.3875 50.6625 45.9375 46.025C50.575 41.475 53.375 35.0875 53.375 28.0875C53.375 21.0875 50.4875 14.7 45.9375 10.0625C41.3875 5.425 35 2.5375 28 2.5375C21 2.5375 14.6125 5.425 10.0625 10.0625Z" fill="#FBFBFB"/>
<path d="M6.91251 39.2L24.7625 26.3375C25.725 26.8625 27.3 27.5625 27.475 27.5625C27.65 27.65 27.65 27.475 27.65 27.475L25.4625 25.6375C25.2 25.4625 25.1125 25.2 25.1125 24.9375L27.2125 3.85C27.125 3.9375 27.125 4.1125 27.0375 4.2C26.95 4.375 26.95 4.4625 26.95 4.6375L23.8875 25.725L7.08751 38.9375C7.00001 39.025 6.91251 39.1125 6.91251 39.2Z" fill="#333F47"/>
<defs>
<linearGradient id="paint0_linear_11_125" x1="7" y1="10.4125" x2="49" y2="45.5875" gradientUnits="userSpaceOnUse">
<stop stop-color="white"/>
<stop offset="0.1" stop-color="#CDD0D0"/>
<stop offset="0.2" stop-color="#A5ACAF"/>
<stop offset="0.3" stop-color="#98A0A4"/>
<stop offset="0.4" stop-color="#828A8F"/>
<stop offset="0.5" stop-color="#667075"/>
<stop offset="0.6" stop-color="#535C63"/>
<stop offset="0.7" stop-color="#475158"/>
<stop offset="0.8" stop-color="#434D54"/>
<stop offset="1" stop-color="#475157"/>
</linearGradient>
<linearGradient id="paint1_linear_11_125" x1="8.31249" y1="11.4625" x2="47.6875" y2="44.5375" gradientUnits="userSpaceOnUse">
<stop stop-color="#0B1F2A"/>
<stop offset="0.2" stop-color="#333F47"/>
<stop offset="0.5" stop-color="#81898D"/>
<stop offset="0.7" stop-color="#B3B8B8"/>
<stop offset="0.8" stop-color="#DEE0DD"/>
<stop offset="1" stop-color="#FBFBFB"/>
</linearGradient>
<linearGradient id="paint2_linear_11_125" x1="37.601" y1="54.3437" x2="18.4385" y2="1.66871" gradientUnits="userSpaceOnUse">
<stop stop-color="#E1E3E1"/>
<stop offset="0.1" stop-color="#C1C5C4"/>
<stop offset="0.3" stop-color="#9BA1A2"/>
<stop offset="0.5" stop-color="#7D8487"/>
<stop offset="0.7" stop-color="#687074" stop-opacity="0"/>
<stop offset="0.8" stop-color="#5B6469" stop-opacity="0"/>
<stop offset="1" stop-color="#576065" stop-opacity="0"/>
</linearGradient>
<linearGradient id="paint3_linear_11_125" x1="15.925" y1="7.0875" x2="40.075" y2="48.9125" gradientUnits="userSpaceOnUse">
<stop stop-color="#E1E3E1"/>
<stop offset="0.1" stop-color="#C1C5C4"/>
<stop offset="0.3" stop-color="#9BA1A2"/>
<stop offset="0.5" stop-color="#7D8487"/>
<stop offset="0.7" stop-color="#687074" stop-opacity="0"/>
<stop offset="0.8" stop-color="#5B6469" stop-opacity="0"/>
<stop offset="1" stop-color="#576065" stop-opacity="0"/>
</linearGradient>
<linearGradient id="paint4_linear_11_125" x1="38.9375" y1="34.475" x2="37.45" y2="36.925" gradientUnits="userSpaceOnUse">
<stop stop-color="#27343C"/>
<stop offset="1" stop-color="#00111E" stop-opacity="0"/>
</linearGradient>
<linearGradient id="paint5_linear_11_125" x1="34.65" y1="25.4625" x2="32.2" y2="21.525" gradientUnits="userSpaceOnUse">
<stop offset="0.1" stop-color="#02131F"/>
<stop offset="0.9" stop-color="#02131F" stop-opacity="0"/>
</linearGradient>
<linearGradient id="paint6_linear_11_125" x1="28" y1="31.85" x2="24.325" y2="32.9" gradientUnits="userSpaceOnUse">
<stop offset="0.2" stop-color="#02131F"/>
<stop offset="0.9" stop-color="#02131F" stop-opacity="0"/>
</linearGradient>
<linearGradient id="paint7_linear_11_125" x1="18.2" y1="36.6625" x2="17.675" y2="35.35" gradientUnits="userSpaceOnUse">
<stop stop-color="#02131F"/>
<stop offset="0.1" stop-color="#02131F"/>
<stop offset="1" stop-color="#02131F" stop-opacity="0"/>
</linearGradient>
<linearGradient id="paint8_linear_11_125" x1="31.15" y1="15.05" x2="28.175" y2="15.4" gradientUnits="userSpaceOnUse">
<stop offset="0.3" stop-color="#02131F"/>
<stop offset="0.8" stop-color="#02131F" stop-opacity="0"/>
</linearGradient>
<linearGradient id="paint9_linear_11_125" x1="31.2375" y1="14.9625" x2="29.225" y2="15.225" gradientUnits="userSpaceOnUse">
<stop offset="0.4" stop-color="#27343C"/>
<stop offset="1" stop-color="#3B474E" stop-opacity="0"/>
</linearGradient>
<linearGradient id="paint10_linear_11_125" x1="-0.350001" y1="28.7875" x2="24.0625" y2="42.875" gradientUnits="userSpaceOnUse">
<stop stop-color="#25323B" stop-opacity="0"/>
<stop offset="0.1" stop-color="#27343C"/>
</linearGradient>
<linearGradient id="paint11_linear_11_125" x1="28" y1="32.725" x2="28" y2="28.525" gradientUnits="userSpaceOnUse">
<stop offset="0.3" stop-color="#A5ABAF"/>
<stop offset="1" stop-color="#A5ABAF" stop-opacity="0"/>
</linearGradient>
<linearGradient id="paint12_linear_11_125" x1="41.7375" y1="2.0125" x2="41.7375" y2="55.3875" gradientUnits="userSpaceOnUse">
<stop stop-color="#6B7378"/>
<stop offset="0.2" stop-color="#333F47"/>
<stop offset="0.5" stop-color="#27343C"/>
<stop offset="0.8" stop-color="#333F47"/>
<stop offset="1" stop-color="#434D54"/>
</linearGradient>
<linearGradient id="paint13_linear_11_125" x1="50.1375" y1="7.0875" x2="38.325" y2="24.4125" gradientUnits="userSpaceOnUse">
<stop offset="0.7" stop-color="#49545B"/>
<stop offset="0.8" stop-color="white" stop-opacity="0"/>
</linearGradient>
</defs>
</svg>
